<!-- 已评价 -->
<?xml version="1.0" standalone="no"?><!DOCTYPE svg PUBLIC "-//W3C//DTD SVG 1.1//EN" "http://www.w3.org/Graphics/SVG/1.1/DTD/svg11.dtd"><svg t="1516067194100" class="icon" style="" viewBox="0 0 1182 1024" version="1.1" xmlns="http://www.w3.org/2000/svg" p-id="4430" xmlns:xlink="http://www.w3.org/1999/xlink" width="73.875" height="64"><defs><style type="text/css"></style></defs><path d="M1035.990884 139.775939H959.884851A143.107593 143.107593 0 0 0 816.900084 0.583423H143.199712A142.95406 142.95406 0 0 0 0 143.491424V651.361401a143.169006 143.169006 0 0 0 143.199712 142.892647h23.244812v16.13626c0 76.520571 64.099796 113.291592 143.184359 113.291592h185.405782l76.766223 64.02303c55.716925 46.443565 146.377834 46.474271 202.325057-0.184239L850.569749 923.6819h185.436488c79.207389 0 143.169006-36.617488 143.169006-113.291592V278.630682c0-76.520571-64.099796-138.854744-143.184359-138.854743z m-869.54636 138.854743V722.753988H107.165647a35.696294 35.696294 0 0 1-35.619527-35.803766V107.856543a35.558114 35.558114 0 0 1 35.619527-35.77306h745.799208A35.696294 35.696294 0 0 1 888.599736 107.856543v31.934749H309.644237c-79.222742 0-143.184359 62.149934-143.184359 138.83939z m941.153893 540.787334a35.097517 35.097517 0 0 1-35.634881 34.805806H832.667866l-134.678661 112.38575c-13.91004 11.5917-36.494662 11.560993-50.481468-0.09212l-134.540483-112.29363h-239.357082C253.942665 854.223822 237.975291 838.670985 237.975291 819.418016V244.024469A35.097517 35.097517 0 0 1 273.610172 209.187957h798.368717c19.68286 0 35.634881 15.56819 35.634881 34.790452z m0 0" p-id="4431"></path><path d="M621.483987 418.913278H372.961017a38.966535 38.966535 0 1 0 0 77.948423h248.52297a38.966535 38.966535 0 0 0 0-77.948423z m-85.793931 154.346168H376.906801a38.966535 38.966535 0 1 0 0 77.948423h158.783255a38.997241 38.997241 0 0 0 0-77.948423z m443.985127-151.674703l-153.194674 153.27144-77.718124-63.685258c-11.821998-11.760585-34.099556-11.791292-46.059734 0a32.564232 32.564232 0 0 0 0.629483 46.581744l99.258726 84.012954a32.241814 32.241814 0 0 0 22.738155 9.396186c0.859782 0 1.734917 0 1.105434-0.107473h2.31834a32.333933 32.333933 0 0 0 23.029867-9.426892l174.105793-174.075087a32.610291 32.610291 0 0 0 0-46.059734c-11.868058-11.837352-34.222382-11.852705-46.1365 0zM825.329015 641.381792v-0.138179z m0 0" p-id="4432"></path></svg>
