<?xml version="1.0" encoding="utf-8" standalone="no"?>
<!DOCTYPE svg PUBLIC "-//W3C//DTD SVG 1.1//EN" "http://www.w3.org/Graphics/SVG/1.1/DTD/svg11.dtd">
<!-- 课程（缺勤） -->
<svg viewBox="0 0 1123 1024" version="1.1" xmlns="http://www.w3.org/2000/svg" xmlns:xlink="http://www.w3.org/1999/xlink">
  <path d="M1060.887118 759.330677c-215.203187 0-499.420983 138.029216-499.420983 138.029217V138.029216S842.284197 0 1123.102258 0l-62.21514 759.330677z m0 0"
    fill="#33A3F4"></path>
  <path d="M62.215139 759.330677c215.203187 0 499.420983 138.029216 499.420983 138.029217V138.029216S280.818061 0 0 0l62.215139 759.330677z m633.200532-465.423638v-87.033201s179.166003-94.002656 331.13413-88.053121c3.229748 0.169987 6.629482 0.339973 9.85923 0.50996 3.399734 1.01992 6.629482 1.699867 9.859229 2.379814 5.609562 1.699867 0.339973-0.169987-1.01992-1.699867 1.01992 1.189907 2.379814 2.549801 3.399734 4.249668 0.339973 2.039841-0.849934 5.779548-1.699867 9.689243-0.849934 3.739708-1.189907 7.819389-1.699867 11.729084-2.719788 10.539177-3.399734 21.588313-3.399734 32.63745 0 3.739708 0.169987 7.309429 0.339973 11.049137 0.339973 2.889774 1.01992 3.909695 1.01992 4.419655-3.909695 1.01992 1.359894-0.679947-4.759628 0.169986-2.379814-0.169987-6.459495-0.169987-10.709163 0-4.419655 0.169987-8.669323 0.339973-13.088978 0.849934-4.589641 0.339973-9.179283 1.01992-13.938911 1.699867-9.34927 1.52988-17.508632 2.889774-26.687915 4.419655-3.229748 0.339973-6.629482 0.679947-10.029216 1.189907-65.444887 7.819389-155.367862 32.12749-268.579017 91.792829zM931.527224 255.150066c-0.339973 0.169987-1.01992 0.169987-3.739707 0.169987-2.549801 0-5.949535 0-10.029217 0.169987-32.807437 1.359894-111.681275 11.89907-212.653386 74.794157-1.869854 1.189907-3.739708 2.379814-5.779549 3.569721v47.936255c10.87915-8.329349 40.626826-32.297477 77.683931-52.86587 45.896414-25.498008 101.312085-39.776892 137.85923-46.576361 3.059761-0.50996 5.949535-1.01992 8.839309-1.699868 2.549801-0.339973 3.739708-0.849934 6.629482-1.189907 1.699867-0.50996-0.339973-5.949535 0.339974-10.539176 0.679947-4.759628 0.50996-9.85923 0.849933-13.768925z m0 0"
    fill="#9CD8EF"></path>
  <path d="M605.152722 765.110226c0 142.958831 115.930943 258.889774 258.719788 258.889774 142.958831 0 258.889774-115.930943 258.889774-258.719788v-0.169986c0-142.958831-115.930943-258.719788-258.719787-258.889774-142.958831 0-258.889774 115.930943-258.889775 258.889774z m0 0"
    fill="#FFDD50"></path>
  <path d="M656.998672 765.110226c0 114.401062 92.812749 207.043825 207.043825 207.043824 114.401062 0 207.043825-92.812749 207.043824-207.043824 0-114.401062-92.812749-207.043825-207.043824-207.043825-114.401062-0.169987-207.043825 92.642762-207.043825 207.043825z m0 0"
    fill="#EEEEEE"></path>
  <path d="M753.746614 649.34927l18.16648-15.376999 206.476069 243.930943-18.164781 15.376998z" fill="#595959"></path>
  <path d="M771.8417 893.346507l-18.166481-15.375299 206.477769-243.930942 18.164781 15.375298z" fill="#595959"></path>
</svg>
