<?xml version="1.0" encoding="utf-8" standalone="no"?>
<!DOCTYPE svg PUBLIC "-//W3C//DTD SVG 1.1//EN" "http://www.w3.org/Graphics/SVG/1.1/DTD/svg11.dtd">
<!-- 课程（已评论） -->
<svg viewBox="0 0 1122 1024" version="1.1" xmlns="http://www.w3.org/2000/svg" xmlns:xlink="http://www.w3.org/1999/xlink">
  <path d="M1055.086314 756.489662c-212.731211 0-493.68428 136.443715-493.684279 136.443715V142.32491S838.994421 5.881195 1116.586807 5.881195l-61.500493 750.608467z m0 0"
    fill="#FDE5C7"></path>
  <path d="M67.885789 756.489662c212.731211 0 493.68428 136.443715 493.68428 136.443715V142.32491S283.977683 5.881195 6.385297 5.881195l61.500492 750.608467z m625.927142-460.077453v-86.033476s177.107975-92.922875 327.330489-87.04168c3.192649 0.168034 6.553331 0.336068 9.745979 0.504102 3.360683 1.008205 6.553331 1.680341 9.74598 2.352478 5.545126 1.680341 0.336068-0.168034-1.008205-1.680341 1.008205 1.176239 2.352478 2.520512 3.360683 4.200853 0.336068 2.01641-0.840171 5.71316-1.680341 9.577946-0.840171 3.696751-1.176239 7.72957-1.680342 11.594355-2.688546 10.418116-3.360683 21.340335-3.360682 32.262553 0 3.696751 0.168034 7.225468 0.336068 10.922219 0.336068 2.85658 1.008205 3.864785 1.008205 4.368887-3.864785 1.008205 1.344273-0.672137-4.704956 0.168034-2.352478-0.168034-6.385297-0.168034-10.58615 0-4.368887 0.168034-8.569741 0.336068-12.938628 0.840171-4.536922 0.336068-9.073843 1.008205-13.778799 1.680341-9.241877 1.512307-17.307516 2.85658-26.381359 4.368888-3.192649 0.336068-6.553331 0.672137-9.914014 1.176238-64.693141 7.72957-153.583197 31.758451-265.493928 90.738432z m233.399409-38.311782c-0.336068 0.168034-1.008205 0.168034-3.696751 0.168034-2.520512 0-5.881195 0-9.914014 0.168034-32.430587 1.344273-110.398425 11.762389-210.210699 73.935018-1.848375 1.176239-3.696751 2.352478-5.71316 3.528717V383.117821c10.754184-8.233672 40.160158-31.926485 76.791598-52.258615 45.369216-25.20512 100.148343-39.319987 136.275681-46.041352 3.024614-0.504102 5.881195-1.008205 8.737775-1.680342 2.520512-0.336068 3.696751-0.840171 6.553331-1.176239 1.680341-0.504102-0.336068-5.881195 0.336068-10.418116s0.504102-9.577946 0.840171-13.44273z m0 0"
    fill="#FBD29F"></path>
  <path d="M562.914342 898.814572h-2.688546l-1.344273-0.504103c-3.024614-1.512307-73.59895-35.455202-169.714473-69.062028-124.681326-43.688874-235.583853-66.70955-321.113227-66.70955h-5.377092L0 0h6.385297c263.813587 0 524.60256 121.152609 555.184772 135.771579C591.984247 121.152609 852.941254 0 1116.586807 0h6.385297l-62.508697 762.370857h-5.377093c-85.529373 0-196.599934 23.020676-321.113226 66.70955-96.115523 33.606826-166.689859 67.717755-169.714473 69.062028l-1.344273 0.672137zM73.430916 750.608467c87.209714 0.840171 194.583525 23.524778 319.600919 67.381687 87.881851 30.750246 154.759436 62.004595 168.538234 68.389892 13.778799-6.553331 80.656383-37.639646 168.538234-68.389892 125.017394-43.688874 232.559239-66.373482 319.600919-67.381687L1110.20151 11.762389c-139.46833 1.008205-278.264522 36.967509-370.851329 67.045619-103.172957 33.606826-172.403019 67.381687-175.427634 68.72596l-2.520512 1.344273-2.520512-1.344273c-2.85658-1.344273-72.254677-35.119134-175.427634-68.72596C291.035117 48.729898 152.238924 12.938628 12.770594 11.762389l60.660322 738.846078z"
    fill="#F8A73A"></path>
  <path d="M604.586807 762.202822c0 141.316705 114.599278 255.915983 255.747948 255.915983 141.316705 0 255.915983-114.599278 255.915983-255.747948v-0.168035c0-141.316705-114.599278-255.747949-255.747948-255.915982-141.316705 0-255.915983 114.599278-255.915983 255.915982z m0 0"
    fill="#FFEEAB"></path>
  <path d="M860.334755 1024c-144.341319 0-261.629143-117.455858-261.629143-261.797178 0-144.173285 117.455858-261.629143 261.797178-261.797177 144.341319 0.168034 261.629143 117.623892 261.629143 261.797177 0.168034 144.341319-117.287824 261.797178-261.797178 261.797178z m0.168035-511.831966c-137.956022 0.168034-250.034788 112.2468-250.034789 250.034788 0 137.956022 112.078766 250.034788 249.866754 250.034789 137.956022 0 250.034788-112.078766 250.034789-249.866754 0.168034-137.956022-112.078766-250.202822-249.866754-250.202823z"
    fill="#FFDD50"></path>
  <path d="M655.837217 762.202822c0 113.086971 91.746636 204.665573 204.665573 204.665573 113.086971 0 204.665573-91.746636 204.665572-204.665573 0-113.086971-91.746636-204.665573-204.665572-204.665572-113.086971-0.168034-204.665573 91.578602-204.665573 204.665572z m0 0"
    fill="#FFFFFF"></path>
  <path d="M970.397112 639.873974H762.370857c-14.450935 0-26.213325 14.282901-26.213325 29.910076l0.336068 143.501149c0 15.627174 10.58615 28.229734 25.037086 28.229734h40.66426l-9.073843 58.475878 94.939284-58.307844 82.504759-0.168034c14.450935 0 26.213325-12.60256 26.213325-28.229734l0.84017-143.501149c0.168034-15.627174-12.770594-29.910075-27.221529-29.910076z m8.905809 173.24319c0 3.192649-1.008205 6.049229-3.024614 8.065639-1.176239 1.176239-3.024614 2.688546-5.713161 2.688546l-82.504759 0.168034c-3.192649 0-6.385297 0.840171-9.241877 2.520512l-62.508697 38.311782 3.192648-20.836232c0.840171-5.041024-0.672137-10.250082-4.032819-14.114867-3.360683-3.864785-8.233672-6.217263-13.274696-6.217263h-40.66426c-0.672137 0-2.688546 0-4.704956-2.184444-1.680341-2.01641-2.85658-5.041024-2.85658-8.401707l-0.336068-143.501148c0-6.721365 4.704956-12.266492 8.737775-12.266492h208.026255c4.200853 0 9.74598 5.881195 9.74598 12.266492l-0.840171 143.501148z m0 0"
    fill="#FFEEAB"></path>
  <path d="M937.79849 713.30489h-144.005251c-4.368887 0-7.897604-3.864785-7.897604-8.737775 0-4.87299 3.528717-8.737775 7.897604-8.737775h144.005251c4.368887 0 7.897604 3.864785 7.897605 8.737775 0 4.87299-3.528717 8.737775-7.897605 8.737775z m2.184444 69.230062h-146.021661c-4.368887 0-8.065638-3.864785-8.065638-8.737774 0-4.87299 3.528717-8.737775 8.065638-8.737775h146.021661c4.368887 0 8.065638 3.864785 8.065638 8.737775-0.168034 4.704956-3.696751 8.737775-8.065638 8.737774z m0 0"
    fill="#FFEEAB"></path>
  <path d="M558.041352 141.148671h6.721365v749.432228h-6.721365z" fill="#F8A73A"></path>
</svg>
