<?xml version="1.0" encoding="utf-8" standalone="no"?>
<!DOCTYPE svg PUBLIC "-//W3C//DTD SVG 1.1//EN" "http://www.w3.org/Graphics/SVG/1.1/DTD/svg11.dtd">
<!-- 课程（已评论） -->
<svg viewBox="0 0 1123 1024" version="1.1" xmlns="http://www.w3.org/2000/svg" xmlns:xlink="http://www.w3.org/1999/xlink">
  <path d="M1059.831509 758.575124c-214.989055 0-498.924046 137.891874-498.924046 137.891874V137.891874S841.446103 0 1121.984743 0l-62.153234 758.575124z m0 0"
    fill="#33A3F4"></path>
  <path d="M62.153234 758.575124c214.989055 0 498.924046 137.891874 498.924046 137.891874V137.891874S280.53864 0 0 0l62.153234 758.575124z m632.570481-464.96053v-86.946601s178.987728-93.909121 330.804643-87.965505c3.226534 0.169818 6.622886 0.339635 9.84942 0.509452 3.396352 1.018905 6.622886 1.698176 9.849419 2.377446 5.60398 1.698176 0.339635-0.169818-1.018905-1.698175 1.018905 1.188723 2.377446 2.547264 3.396351 4.245439 0.339635 2.037811-0.849088 5.773798-1.698175 9.679602-0.849088 3.735987-1.188723 7.811609-1.698176 11.717413-2.717081 10.52869-3.396352 21.566833-3.396352 32.604975 0 3.735987 0.169818 7.302156 0.339635 11.038143 0.339635 2.886899 1.018905 3.905804 1.018906 4.415257-3.905804 1.018905 1.358541-0.67927-4.754892 0.169817-2.377446-0.169818-6.453068-0.169818-10.698508 0-4.415257 0.169818-8.660697 0.339635-13.075953 0.849088-4.585075 0.339635-9.170149 1.018905-13.925042 1.698176-9.339967 1.528358-17.491211 2.886899-26.66136 4.415257-3.226534 0.339635-6.622886 0.67927-10.019237 1.188723-65.379768 7.811609-155.213267 32.095522-268.311774 91.701493zM930.600332 254.896186c-0.339635 0.169818-1.018905 0.169818-3.735987 0.169817-2.547264 0-5.943615 0-10.019237 0.169818-32.774793 1.358541-111.570149 11.887231-212.441791 74.719735-1.867993 1.188723-3.735987 2.377446-5.773798 3.566169v47.888557c10.868325-8.321061 40.586401-32.26534 77.606634-52.813267 45.850746-25.472637 101.211277-39.737313 137.722056-46.530017 3.056716-0.509453 5.943615-1.018905 8.830514-1.698175 2.547264-0.339635 3.735987-0.849088 6.622886-1.188723 1.698176-0.509453-0.339635-5.943615 0.339635-10.52869 0.67927-4.754892 0.509453-9.84942 0.849088-13.755224z m0 0"
    fill="#9CD8EF"></path>
  <path d="M604.55058 764.348922c0 142.816584 115.815589 258.632172 258.462355 258.632173 142.816584 0 258.632172-115.815589 258.632173-258.462355v-0.169818c0-142.816584-115.815589-258.462355-258.462355-258.632172-142.816584 0-258.632172 115.815589-258.632173 258.632172z m0 0"
    fill="#FFDD50"></path>
  <path d="M656.344942 764.348922c0 114.287231 92.720398 206.837811 206.837811 206.837811 114.287231 0 206.837811-92.720398 206.837811-206.837811 0-114.287231-92.720398-206.837811-206.837811-206.837811-114.287231-0.169818-206.837811 92.55058-206.837811 206.837811z m0 0"
    fill="#EEEEEE"></path>
  <path d="M974.243449 640.721725H764.009287c-14.604312 0-26.491542 14.434494-26.491542 30.227529l0.339635 145.024212c0 15.793035 10.698507 28.529353 25.302819 28.529353h41.095854l-9.170149 59.096518 95.946932-58.9267 83.380431-0.169818c14.604312 0 26.491542-12.736318 26.491542-28.529353l0.849088-145.024212c0.169818-15.793035-12.906136-30.227529-27.510448-30.227529z m9.000332 175.081923c0 3.226534-1.018905 6.113433-3.056716 8.151244-1.188723 1.188723-3.056716 2.717081-5.773798 2.717081l-83.380431 0.169818c-3.226534 0-6.453068 0.849088-9.339967 2.547264L818.52073 868.107463l3.396351-20.717745c0.849088-5.094527-0.67927-10.358872-4.075622-14.264677-3.396352-3.905804-8.321061-6.28325-13.415588-6.28325h-41.095854c-0.67927 0-2.717081 0-4.754893-2.207628-1.698176-2.037811-2.886899-5.094527-2.886898-8.490879l-0.339636-145.024213c0-6.792703 4.754892-12.396683 8.830514-12.396683h210.234163c4.245439 0 9.84942 5.943615 9.84942 12.396683l-1.018906 144.684577z m0 0"
    fill="#595959"></path>
  <path d="M941.298839 714.932007h-145.533665c-4.415257 0-7.981426-3.905804-7.981426-8.830514 0-4.92471 3.566169-8.830514 7.981426-8.830515h145.533665c4.415257 0 7.981426 3.905804 7.981426 8.830515 0 4.92471-3.566169 8.830514-7.981426 8.830514z m2.207629 69.964842h-147.571476c-4.415257 0-8.151244-3.905804-8.151244-8.830514 0-4.92471 3.566169-8.830514 8.151244-8.830514h147.571476c4.415257 0 8.151244 3.905804 8.151243 8.830514-0.169818 4.754892-3.735987 8.830514-8.151243 8.830514z m0 0"
    fill="#595959"></path>
</svg>
