<?xml version="1.0" standalone="no"?>
<!DOCTYPE svg PUBLIC "-//W3C//DTD SVG 1.1//EN" "http://www.w3.org/Graphics/SVG/1.1/DTD/svg11.dtd">
<!-- 课程（已上课） -->
<svg viewBox="0 0 1123 1024" version="1.1" xmlns="http://www.w3.org/2000/svg" xmlns:xlink="http://www.w3.org/1999/xlink">
  <path d="M1060.853121 759.364675c-215.271182 0-499.352988 138.029216-499.352988 138.029216V138.029216S842.318194 0 1123.136255 0z m0 0"
    fill="#33A3F4"></path>
  <path d="M62.283134 759.364675c215.271182 0 499.352988 138.029216 499.352988 138.029216V138.029216S280.818061 0 0 0z m633.166534-465.491634v-87.0332s179.098008-93.968659 331.13413-87.985127c3.263745 0.135989 6.663479 0.271979 9.927225 0.543958 3.399734 0.951926 6.663479 1.699867 9.927224 2.447809 5.575564 1.699867 0.271979-0.135989-1.087915-1.699867 0.951926 1.223904 2.311819 2.583798 3.399734 4.21567 0.271979 2.039841-0.815936 5.847543-1.699867 9.655246a110.661355 110.661355 0 0 0-1.699867 11.695086 131.297742 131.297742 0 0 0-3.399734 32.63745c0 3.671713 0.135989 7.343426 0.271978 11.01514a41.816733 41.816733 0 0 0 1.087915 4.487649c-3.943692 1.087915 1.359894-0.679947-4.759628 0.13599-2.447809-0.135989-6.391501-0.135989-10.74316 0s-8.70332 0.407968-13.054981 0.815936c-4.623639 0.407968-9.247278 0.951926-14.006905 1.699867-9.383267 1.495883-17.542629 2.855777-26.653918 4.35166-3.263745 0.407968-6.663479 0.679947-10.063214 1.223904-65.546879 8.023373-155.571846 32.297477-268.715006 91.928819zM931.527224 255.116069a16.318725 16.318725 0 0 1-3.807702 0.135989c-2.583798 0-5.983533 0-10.063214 0.13599-32.77344 1.359894-111.647278 11.89907-212.687384 74.794157-1.903851 1.223904-3.807703 2.447809-5.711553 3.535723v47.868261c10.87915-8.295352 40.660823-32.297477 77.649933-52.899868 45.896414-25.498008 101.312085-39.708898 137.893227-46.644356l8.83931-1.699867c2.583798-0.407968 3.671713-0.815936 6.663479-1.223904 1.699867-0.543958-0.271979-5.983533 0.407968-10.471182s0.543958-9.655246 0.815936-13.598938z m0 0"
    fill="#9CD8EF"></path>
  <path d="M605.152722 765.076228c0 142.924834 115.862948 258.923772 258.787783 258.923772s258.923772-115.862948 258.923771-258.787782v-0.13599a258.991766 258.991766 0 0 0-258.787782-258.923771C721.015671 506.288446 605.152722 622.151394 605.152722 765.076228z m0 0"
    fill="#FFDD50"></path>
  <path d="M656.964675 765.076228a207.111819 207.111819 0 1 0 207.111819-207.111819 207.145817 207.145817 0 0 0-207.111819 207.111819z m0 0"
    fill="#EEEEEE"></path>
  <path d="M747.560797 760.804462l84.366109 84.367809-25.841381 25.843081-84.367809-84.367809z" fill="#595959"></path>
  <path d="M1020.683559 707.926693l-188.855246 188.855246-25.84478-25.843081 188.855245-188.855246z" fill="#595959"></path>
</svg>
