<?xml version="1.0" encoding="utf-8" standalone="no"?>
<!DOCTYPE svg PUBLIC "-//W3C//DTD SVG 1.1//EN" "http://www.w3.org/Graphics/SVG/1.1/DTD/svg11.dtd">
<!-- 课程（已上课） -->
<svg viewBox="0 0 1121 1024" version="1.1" xmlns="http://www.w3.org/2000/svg" xmlns:xlink="http://www.w3.org/1999/xlink">
  <path d="M1051.68021 755.250328c-212.3827 0-492.875491 136.220183-492.875492 136.220183V142.091743S835.942333 5.87156 1113.079948 5.87156l-61.399738 749.378768z m0 0"
    fill="#D6F0CF"></path>
  <path d="M66.096986 755.250328c212.3827 0 492.875491 136.220183 492.875491 136.220183V142.091743S281.834862 5.87156 4.697248 5.87156l61.399738 749.378768z m624.901703-459.323722v-85.89253s176.817824-92.770642 326.794234-86.899083c3.187418 0.167759 6.542595 0.335518 9.730013 0.503277 3.355177 1.006553 6.542595 1.677588 9.730013 2.348624 5.536042 1.677588 0.335518-0.167759-1.006553-1.677589 1.006553 1.174312 2.348624 2.516383 3.355177 4.193972 0.335518 2.013106-0.838794 5.703801-1.677589 9.562254-0.838794 3.690695-1.174312 7.716907-1.677588 11.57536-2.684142 10.401048-3.355177 21.305374-3.355177 32.209699 0 3.690695 0.167759 7.21363 0.335518 10.904325 0.335518 2.8519 1.006553 3.858453 1.006553 4.36173-3.858453 1.006553 1.342071-0.671035-4.697248 0.167759-2.348624-0.167759-6.374836-0.167759-10.568807 0-4.36173 0.167759-8.555701 0.335518-12.917432 0.838794-4.529489 0.335518-9.058978 1.006553-13.756225 1.677588-9.226737 1.50983-17.279161 2.8519-26.338139 4.36173-3.187418 0.335518-6.542595 0.671035-9.897772 1.174312-64.587156 7.716907-153.331586 31.706422-265.058978 90.589778z m233.017038-38.249018c-0.335518 0.167759-1.006553 0.167759-3.690694 0.167759-2.516383 0-5.87156 0-9.897772 0.167759-32.377457 1.342071-110.217562 11.743119-209.866317 73.813893-1.845347 1.174312-3.690695 2.348624-5.703801 3.522935V382.49017c10.736566-8.220183 40.094364-31.874181 76.665793-52.173001 45.294889-25.163827 99.984273-39.25557 136.052424-45.965924 3.019659-0.503277 5.87156-1.006553 8.72346-1.677588 2.516383-0.335518 3.690695-0.838794 6.542595-1.174312 1.677588-0.503277-0.335518-5.87156 0.335518-10.401049s0.503277-9.562254 0.838794-13.420708z m0 0"
    fill="#BAE8AE"></path>
  <path d="M561.992136 897.342071h-2.684141l-1.342071-0.503277c-3.019659-1.50983-73.478375-35.397117-169.436435-68.948886-124.477064-43.6173-235.197903-66.600262-320.587156-66.600262h-5.368283L0 0h6.374836C269.588467 0 530.117955 120.954128 560.650066 135.549148 591.014417 120.954128 851.543906 0 1114.757536 0h6.374836l-62.406291 761.121887h-5.368283c-85.389253 0-196.277851 22.982962-320.587156 66.600262-95.95806 33.551769-166.416776 67.606815-169.436435 68.948886l-1.342071 0.671036zM73.310616 749.378768c87.066841 0.838794 194.264744 23.486239 319.077326 67.271298 87.737877 30.699869 154.505898 61.903014 168.262124 68.27785 13.756225-6.542595 80.356488-37.577982 168.262123-68.27785 124.812582-43.6173 232.178244-66.264744 319.077326-67.271298L1108.3827 11.743119c-139.239843 1.006553-277.80865 36.906946-370.243775 66.93578-102.836173 33.551769-172.120577 67.271298-175.140236 68.613368l-2.516382 1.342071-2.516383-1.342071c-2.8519-1.342071-72.136304-35.061599-175.140236-68.613368C290.558322 48.650066 151.989515 12.917431 12.749672 11.743119l60.560944 737.635649z"
    fill="#78CE5B"></path>
  <path d="M601.918742 760.954128c0 141.08519 114.411533 255.496723 255.328964 255.496724 141.08519 0 255.496723-114.411533 255.496724-255.328965v-0.167759c0-141.08519-114.411533-255.328965-255.328965-255.496723-141.08519 0-255.496723 114.411533-255.496723 255.496723z m0 0"
    fill="#FFEEAB"></path>
  <path d="M855.570118 1024c-144.104849 0-261.200524-117.263434-261.200524-261.368283 0-143.93709 117.263434-261.200524 261.368283-261.368283 144.104849 0.167759 261.200524 117.431193 261.200524 261.368283 0.167759 144.104849-117.095675 261.368283-261.368283 261.368283z m0.167759-510.993447c-137.730013 0.167759-249.625164 112.06291-249.625164 249.625164 0 137.730013 111.895151 249.625164 249.457405 249.625164 137.730013 0 249.625164-111.895151 249.625164-249.457405 0.167759-137.730013-111.895151-249.792923-249.457405-249.792923z"
    fill="#FFDD50"></path>
  <path d="M653.08519 760.954128c0 112.901704 91.59633 204.330275 204.330275 204.330276 112.901704 0 204.330275-91.59633 204.330275-204.330276 0-112.901704-91.59633-204.330275-204.330275-204.330275-112.901704-0.167759-204.330275 91.428571-204.330275 204.330275z m0 0"
    fill="#FFFFFF"></path>
  <path d="M1012.089122 704.587156l-25.499345-25.499345-160.880734 160.880734-83.208388-83.208388-25.499344 25.499345 83.208388 83.208388 25.499344 25.499345z"
    fill="#FFEEAB"></path>
  <path d="M557.12713 142.091743h6.710354v746.694627h-6.710354z" fill="#78CE5B"></path>
</svg>
