<?xml version="1.0" encoding="utf-8" standalone="no"?>
<!DOCTYPE svg PUBLIC "-//W3C//DTD SVG 1.1//EN" "http://www.w3.org/Graphics/SVG/1.1/DTD/svg11.dtd">
<!-- 课程（缺勤） -->
<svg viewBox="0 0 1123 1024" version="1.1" xmlns="http://www.w3.org/2000/svg" xmlns:xlink="http://www.w3.org/1999/xlink">
  <path d="M1054.933508 756.357905c-212.835988 0-493.927434 136.510918-493.927433 136.510918V141.890658S838.735183 5.379741 1116.464292 5.379741l-61.530784 750.978164z m0 0"
    fill="#FBE3E7"></path>
  <path d="M67.414874 756.357905c212.835988 0 493.927434 136.510918 493.927434 136.510918V141.890658S283.6132 5.379741 5.884091 5.379741l61.530783 750.978164zM693.650304 295.885733v-86.07585S870.84551 116.841241 1021.142013 122.725332c3.194221 0.168117 6.556559 0.336234 9.75078 0.504351 3.362338 1.008701 6.556559 1.681169 9.750779 2.353637 5.547857 1.681169 0.336234-0.168117-1.008701-1.681169 1.008701 1.176818 2.353637 2.521753 3.362338 4.202922 0.336234 2.017403-0.840584 5.715974-1.681169 9.582663-0.840584 3.698572-1.176818 7.733377-1.681169 11.600066-2.68987 10.423247-3.362338 21.350846-3.362338 32.278443 0 3.698572 0.168117 7.229026 0.336234 10.927598 0.336234 2.857987 1.008701 3.866689 1.008701 4.37104-3.866689 1.008701 1.344935-0.672468-4.707273 0.168117-2.353637-0.168117-6.388442-0.168117-10.591364 0-4.371039 0.168117-8.573962 0.336234-12.945001 0.840584-4.539156 0.336234-9.078312 1.008701-13.785585 1.681169-9.246429 1.513052-17.31604 2.857987-26.394352 4.371039-3.194221 0.336234-6.556559 0.672468-9.918897 1.176818-64.725004 7.901494-153.826958 31.774093-265.624692 90.783123z m233.514365-38.330652c-0.336234 0.168117-1.008701 0.168117-3.698571 0.168117-2.521753 0-5.884091 0-9.918897 0.168117-32.44656 1.344935-110.452799 11.768183-210.314234 73.971433-1.849286 1.176818-3.698572 2.353637-5.715975 3.530455v47.408964c10.759481-8.237728 40.179938-31.94221 76.829421-52.284354 45.391561-25.217534 100.197669-39.339353 136.342801-46.064029 3.026104-0.504351 5.884091-1.008701 8.742078-1.681169 2.521753-0.336234 3.698572-0.840584 6.556559-1.176818 1.681169-0.504351-0.336234-5.884091 0.336234-10.423247s0.504351-9.582663 0.840584-13.617469z m0 0"
    fill="#F8CCD4"></path>
  <path d="M561.678542 899.761615l-5.884091-2.857987c-15.298637-7.229026-80.864226-37.658184-166.435725-67.582991-124.742735-43.710392-235.699885-66.742407-321.271384-66.742407h-5.379741L0 0h6.388442c263.943523 0 524.860942 121.21228 555.458217 135.83845C592.275817 121.21228 853.361353 0 1117.136759 0h6.388442l-62.539484 762.746347h-5.379741c-85.571499 0-196.696766 23.032014-321.271384 66.742407-85.571499 29.924807-151.137088 60.353965-166.435725 67.582991l-6.220325 2.68987zM73.467083 750.978165c87.252668 0.840584 194.679363 23.536365 319.758332 67.414874 87.757019 30.765392 154.667542 61.867017 168.453127 68.423576h0.168117c30.429158-14.458053 286.807421-133.652931 488.21146-135.83845L1110.748317 11.768183c-139.537022 1.008701-278.401576 36.985717-371.033984 67.07864-103.223773 33.623379-172.487933 67.414874-175.514037 68.75981l-2.521754 1.344935-2.521753-1.344935c-2.857987-1.344935-72.290264-35.136431-175.514037-68.75981C291.17846 48.753899 152.313906 12.945001 12.776884 11.768183l60.690199 739.209982z"
    fill="#E0455B"></path>
  <path d="M604.380233 762.241996c0 141.386308 114.655722 256.042029 255.873912 256.04203 141.386308 0 256.042029-114.655722 256.04203-255.873913v-0.168117c0-141.386308-114.655722-255.873912-255.873913-256.042029-141.386308 0-256.042029 114.655722-256.042029 256.042029z m0 0"
    fill="#FFEEAB"></path>
  <path d="M860.254145 1024c-144.412412 0-261.758004-117.513709-261.758003-261.926121 0-144.244295 117.513709-261.758004 261.92612-261.92612 144.412412 0.168117 261.758004 117.681826 261.758004 261.92612 0 144.412412-117.513709 261.926121-261.926121 261.926121z m0.168117-512.252175c-138.02397 0.168117-250.157938 112.470202-250.157938 250.157938 0 138.02397 112.133968 250.157938 249.989821 250.157938 138.02397 0 250.157938-112.133968 250.157938-249.989822 0-137.855853-112.133968-250.157938-249.989821-250.326054z"
    fill="#FFDD50"></path>
  <path d="M655.487769 762.241996c0 113.14267 91.791824 204.766377 204.766376 204.766377 113.14267 0 204.766377-91.791824 204.766377-204.766377 0-113.14267-91.791824-204.766377-204.766377-204.766376-112.974553-0.168117-204.766377 91.623707-204.766376 204.766376z m0 0"
    fill="#FFFFFF"></path>
  <path d="M985.837465 664.06173l-27.403054-27.403053-98.012149 98.180266-98.012149-98.180266-27.403053 27.403053 98.012149 98.180266-98.012149 98.012149 27.403053 27.403054 98.012149-98.180266 98.012149 98.180266 27.403054-27.403054-98.012149-98.012149z"
    fill="#FFEEAB"></path>
  <path d="M557.811854 141.890658h6.724675v752.827451h-6.724675z" fill="#E0455B"></path>
</svg>
