<!-- 缺勤 -->
<?xml version="1.0" standalone="no"?><!DOCTYPE svg PUBLIC "-//W3C//DTD SVG 1.1//EN" "http://www.w3.org/Graphics/SVG/1.1/DTD/svg11.dtd"><svg t="1516067183208" class="icon" style="" viewBox="0 0 1111 1024" version="1.1" xmlns="http://www.w3.org/2000/svg" p-id="4181" xmlns:xlink="http://www.w3.org/1999/xlink" width="69.4375" height="64"><defs><style type="text/css"></style></defs><path d="M1110.4 169.8875a75.65 75.65 0 0 0-3.475-22.025c-9.8625-30.7375-35.95-48.125-71.325-48.125-60.8875 0-120.6 0-179.75 0.575 0.575-17.975 0.575-36.525 0-53.925V31.3125c0-12.175-4.6375-19.7125-9.275-23.1875-4.6375-5.8-11.6-8.125-19.1375-8.125-16.25 0.5875-26.675 12.7625-26.675 30.7375v69H318.925V33.6375c0-24.35-15.075-33.05-27.8375-33.05h-0.575a26.725 26.725 0 0 0-19.1375 7.5c-5.8 5.8-8.75 14.4875-8.75 25.5125v66.7125h-122.875c-24.9375 0-50.45 0-75.3875 0.5875-31.25 0.575-64.3625 22.6125-64.3625 67.2625 0.575 212.8 0.575 428.5 0.575 637.825v154.2375c0 24.35 11.6 43.4875 33.625 54.5 16.25 8.125 32.5 9.275 46.9625 9.275H1043.1375c38.85-2.3125 68.425-33.05 68.425-70.7375-1.1625-236.575-0.575-510.8375-1.1625-783.375z m-1054.15 0.575c0-12.7625 0.575-13.3375 13.9125-13.9125 20.875-1.1625 42.325-1.1625 62.625-1.1625h129.3125v102.0625c0 22.0375 13.9125 32.5 27.25 32.5 7.5 0 14.5-2.325 19.1375-7.5 4.0625-4.0625 9.275-12.175 9.275-25.5125v-101.5375h481.85v105c0 14.5 7.5 24.9375 20.875 28.4125s24.9375-1.7375 31.3125-13.9125c2.9-5.8 3.4875-12.175 3.4875-17.975v-102.1h178.575c7.5 0 12.7625 1.1625 15.65 4.0625s4.0625 8.1125 4.0625 15.65v772.925c0 15.075-4.0625 19.1375-19.1375 19.1375H78.8625a82.3375 82.3375 0 0 1-17.975-1.7375 41.45 41.45 0 0 1-4.6375-1.75s-0.575-1.1625-0.575-5.8V545.625c1.1625-122.3375 1.1625-249.9125 0.575-375.1625z m0 0" p-id="4182"></path><path d="M934.525 335.9125H176.5125a19.5125 19.5125 0 0 0-19.2875 19.225 19.525 19.525 0 0 0 19.2875 19.275h758.5125a19.2875 19.2875 0 1 0-0.55-38.5625z m0 0M696.075 869.9375L555.7875 729.65 415.5 869.9375a16.6525 16.6525 0 0 1-23.55-23.55l140.2875-140.2875-140.2875-140.2875c-6.6625-6.65-6.6625-17.4125 0-23.55a16.3875 16.3875 0 0 1 23.55 0l140.2875 140.2875 140.2875-140.2875a16.6525 16.6525 0 0 1 23.55 23.55L579.3375 706.1l140.2875 140.2875a16.375 16.375 0 0 1 0 23.55c-6.1375 6.65-16.8875 6.65-23.55 0z m0 0" p-id="4183"></path></svg>
