<?xml version="1.0" encoding="utf-8" standalone="no"?>
<!DOCTYPE svg PUBLIC "-//W3C//DTD SVG 1.1//EN" "http://www.w3.org/Graphics/SVG/1.1/DTD/svg11.dtd">
<!-- 课程表 -->
<svg viewBox="0 0 1024 1024" version="1.1" xmlns="http://www.w3.org/2000/svg" xmlns:xlink="http://www.w3.org/1999/xlink">
  <path d="M932.0106867 102.5517732h-136.56239198V39.55974073a31.55974073 31.55974073 0 1 0-63.11948245 0v62.99203247H543.49609597V39.55974073a31.55974073 31.55974073 0 1 0-63.11948245 0v62.99203247H291.57575947V39.55974073a31.55974073 31.55974073 0 1 0-63.11948147 0v62.99203247H91.98947178A83.9256518 83.9256518 0 0 0 8.00009548 186.60487498V932.01059122a83.9256518 83.9256518 0 0 0 83.9893763 83.98937728H932.0106867A83.9256518 83.9256518 0 0 0 1016.00006398 932.01059122V186.60487498A83.9256518 83.9256518 0 0 0 932.0106867 102.5517732z m20.99734482 829.44288689A20.9814127 20.9814127 0 0 1 932.0106867 953.00793603H91.98947178A20.9814127 20.9814127 0 0 1 70.99212795 932.01059122V186.60487498a20.9814127 20.9814127 0 0 1 20.99734383-20.99734382h136.54646185v62.99203247a31.55974073 31.55974073 0 1 0 63.11948245 0V165.54380567h188.84864742v62.99203247a31.55974073 31.55974073 0 1 0 63.11948245 0V165.54380567h188.97609643v62.99203247a31.55974073 31.55974073 0 1 0 63.11948245 0V165.54380567h136.54646184a20.9814127 20.9814127 0 0 1 20.99734383 21.06106931V932.01059122z m-724.4720979-451.49069207h125.98406494v-94.55177321h-125.98406494z m0 157.54380567h125.98406494v-94.58363546h-125.98406494z m0 157.40042456h125.98406494v-94.53584208h-125.98406494z m220.53583815 0h125.98406493v-94.53584208h-125.98406493z m0-157.40042456h125.98406493v-94.58363546h-125.98406493z m0-157.54380567h125.98406493v-94.55177321h-125.98406493z m220.40838914 314.94423023h125.98406493v-94.53584208h-125.98406493z m0-157.40042456h125.98406493v-94.58363546h-125.98406493z m0-157.54380567h125.98406493v-94.55177321h-125.98406493z m0 0"></path>
</svg>
