<!-- 默认成功图标 -->
<svg id="图层_1" data-name="图层 1" xmlns="http://www.w3.org/2000/svg" xmlns:xlink="http://www.w3.org/1999/xlink" viewBox="0 0 575.97 591.45"><defs><style>.cls-1{fill:none;}.cls-2{fill:#3c3d4d;}.cls-11,.cls-3{fill:#3696cc;}.cls-4{fill:#fff;}.cls-5{fill:#2c2d2d;}.cls-6{fill:#f2accb;}.cls-6,.cls-7{opacity:0.8;}.cls-8{fill:#040000;}.cls-9{fill:#43b9d5;}.cls-10{clip-path:url(#clip-path);}.cls-11{font-size:25.71px;}.cls-11,.cls-12{font-family:CTHeiTiSF, CTHeiTiSF;}.cls-12{font-size:56.49px;fill:#231815;}</style><clipPath id="clip-path" transform="translate(852.13 3164.45)"><circle class="cls-1" cx="-564.14" cy="-2877.96" r="287.99"/></clipPath></defs><title>矢量智能对象</title><circle class="cls-2" cx="287.99" cy="287.99" r="287.99"/><path class="cls-3" d="M-577.23-2990.17a40.53,40.53,0,0,1-23.9,10.94c-14.79,1.35-126,29.39-114.28,148.82,9.86,57.1,2.43,67.83,152.3,66.17,135.87-1.51,167.35,3.2,153.8-110.68-23.2-97-127.29-104.13-127.29-104.13s7.53-11.15,4.49-18.91c-.23-.57-10.51,8.37-25.88,17.1-5.26,3,9.64-36.45-.6-26.21C-563.81-3001.86-577.23-2990.17-577.23-2990.17Z" transform="translate(852.13 3164.45)"/><path class="cls-3" d="M-696.27-2916.37c-2.53-10.86-13.74-17.52-24.6-20a65.6,65.6,0,0,0-53.83,11.57A65.6,65.6,0,0,0-800.09-2876a65.6,65.6,0,0,0,21.5,50.69c5.21,4.66,11.63,8.61,18.62,8.59s14.28-5.29,14.42-12.28a8.91,8.91,0,0,0,7.64,10.5,8.91,8.91,0,0,0,9.15-9.21,8.88,8.88,0,0,0,8.41,4.92,8.88,8.88,0,0,0,7.66-6" transform="translate(852.13 3164.45)"/><path class="cls-3" d="M-435.12-2919.13c.56-8.81,5.62-17,12.57-22.43s15.63-8.35,24.39-9.5c17.25-2.26,35.41,2.28,49.18,12.91s22.85,27.31,23.66,44.69-6.85,35.08-20.47,45.9c-3.62,2.87-7.78,5.33-12.37,5.83s-9.66-1.35-11.94-5.37c3.06,3.43,1.91,9.64-2.17,11.76s-9.82-.54-10.85-5a9.39,9.39,0,0,1-4.23,10.37c-3.48,2-17.66-1.66-20.46-4.54" transform="translate(852.13 3164.45)"/><rect class="cls-4" x="162.93" y="267.32" width="252.16" height="78.96" rx="24.92" ry="24.92"/><path class="cls-5" d="M-540.35-2829.58c-2.45-18-16.46-26.28-22.47-26.21h-.59c-6-.07-20,8.19-22.47,26.21-2.33,17.13,10.06,26.21,22.47,26.21h.59C-550.41-2803.37-538-2812.45-540.35-2829.58Z" transform="translate(852.13 3164.45)"/><ellipse class="cls-6" cx="369.16" cy="331.69" rx="20.94" ry="12.14"/><ellipse class="cls-6" cx="203.76" cy="331.69" rx="20.94" ry="12.14"/><g class="cls-7"><path class="cls-8" d="M-492.7-2834.4l.43,4.52c.16,1.72,2.88,1.74,2.71,0l-.43-4.52c-.16-1.72-2.88-1.74-2.71,0Z" transform="translate(852.13 3164.45)"/></g><g class="cls-7"><path class="cls-8" d="M-483.63-2833.57l.87,4.07c.36,1.71,3,1,2.61-.72l-.87-4.07c-.36-1.71-3-1-2.61.72Z" transform="translate(852.13 3164.45)"/></g><g class="cls-7"><path class="cls-8" d="M-473.64-2834.4v3.16a1.36,1.36,0,0,0,2.71,0v-3.16a1.36,1.36,0,0,0-2.71,0Z" transform="translate(852.13 3164.45)"/></g><g class="cls-7"><path class="cls-8" d="M-659.77-2836.57l-2.25,5.43a1.37,1.37,0,0,0,.95,1.67,1.39,1.39,0,0,0,1.67-.95l2.25-5.43a1.37,1.37,0,0,0-.95-1.67,1.39,1.39,0,0,0-1.67.95Z" transform="translate(852.13 3164.45)"/></g><g class="cls-7"><path class="cls-8" d="M-653.56-2835.3l.4,5.88c.12,1.73,2.83,1.74,2.71,0l-.4-5.88c-.12-1.73-2.83-1.74-2.71,0Z" transform="translate(852.13 3164.45)"/></g><g class="cls-7"><path class="cls-8" d="M-644-2833.14l.9,4.52c.34,1.71,3,1,2.61-.72l-.9-4.52c-.34-1.71-3-1-2.61.72Z" transform="translate(852.13 3164.45)"/></g><path class="cls-9" d="M-418-2917.18c9.6-12.1,24.92-19.21,40.45-17.4,15.13,1.77,28.23,11.83,34.75,25.41,1.51,3.14,6.19.4,4.68-2.74a50.22,50.22,0,0,0-38-27.92c-17.3-2.32-34.94,5.21-45.72,18.8-2.15,2.71,1.67,6.57,3.83,3.83Z" transform="translate(852.13 3164.45)"/><path class="cls-9" d="M-421.48-2916.64c11,18.75,34.57,11.81,50,3.88,3.11-1.59.37-6.27-2.74-4.68-12.66,6.48-33.34,13.93-42.63-1.94-1.76-3-6.45-.28-4.68,2.74Z" transform="translate(852.13 3164.45)"/><path class="cls-9" d="M-422.72-2919.82c-.32,26.8,23.07,48,49.77,44.46,1.87-.25,3.59-2.16,2.34-4.08l-.56-.86c-1.9-2.91-6.6-.2-4.68,2.74l.56.86,2.34-4.08c-23.78,3.14-44.64-14.91-44.35-39,0-3.49-5.38-3.49-5.42,0Z" transform="translate(852.13 3164.45)"/><path class="cls-9" d="M-700.77-2906.56c-10.78-13.6-28.43-21.12-45.72-18.8a50.22,50.22,0,0,0-38,27.92c-1.5,3.13,3.17,5.89,4.68,2.74,6.52-13.59,19.62-23.64,34.75-25.41,15.53-1.82,30.85,5.3,40.45,17.4,2.17,2.73,6-1.13,3.83-3.83Z" transform="translate(852.13 3164.45)"/><path class="cls-9" d="M-705.8-2904.92c-9.29,15.86-30,8.42-42.63,1.94-3.1-1.59-5.85,3.09-2.74,4.68,15.48,7.92,39.07,14.87,50-3.88,1.77-3-2.92-5.75-4.68-2.74Z" transform="translate(852.13 3164.45)"/><path class="cls-9" d="M-705.29-2905.36c.29,24.13-20.57,42.18-44.35,39l2.34,4.08.56-.86c1.91-2.93-2.78-5.65-4.68-2.74l-.56.86c-1.25,1.92.47,3.83,2.34,4.08,26.7,3.53,50.09-17.67,49.77-44.46,0-3.49-5.46-3.5-5.42,0Z" transform="translate(852.13 3164.45)"/><path class="cls-3" d="M-646.55-2737.59s-101.78,11.09-116-32.87c10.3-13.47,12.67-12.67-.4-22.57-2.77-10.69-3.56-23-22.57-12.28-.79-2-28.91-9.11-20.59,16.24-2,.79-23.37,25,15,28.91,1.58,4.75,14.53,50.82,95.84,57C-581.2-2694.42-646.55-2737.59-646.55-2737.59Z" transform="translate(852.13 3164.45)"/><path class="cls-3" d="M-495-2736.8s101.78,11.09,116-32.87c-10.3-13.47-12.67-12.67.4-22.57,2.77-10.69,3.56-23,22.57-12.28.79-2,28.91-9.11,20.59,16.24,2,.79,23.37,25-15,28.91-1.58,4.75-14.53,50.82-95.84,57C-560.38-2693.63-495-2736.8-495-2736.8Z" transform="translate(852.13 3164.45)"/><path class="cls-8" d="M-519-2855.28c.15-16.15,19.38-20.93,32.41-19.64a47.89,47.89,0,0,1,32.86,18.38c2.37,3,6.59-1.23,4.24-4.24a53.48,53.48,0,0,0-41.5-20.36c-15.52-.07-33.87,8.09-34,25.86,0,3.86,6,3.87,6,0Z" transform="translate(852.13 3164.45)"/><path class="cls-8" d="M-599.2-2854.28c-.16-17.77-18.5-25.93-34-25.86a53.48,53.48,0,0,0-41.5,20.36c-2.35,3,1.87,7.29,4.24,4.24a47.86,47.86,0,0,1,32.86-18.38c13-1.26,32.27,3.47,32.41,19.64,0,3.86,6,3.87,6,0Z" transform="translate(852.13 3164.45)"/><g class="cls-10"><path class="cls-3" d="M-632-2766.83s-79.81,170.61-12.22,185.4,140.47,5.73,153.14,5.28c29.57-1.06,50.69-64.42-8.45-193.27C-588.24-2815.89-632-2766.83-632-2766.83Z" transform="translate(852.13 3164.45)"/></g><path class="cls-4" d="M-540.46-2715.26a14.18,14.18,0,0,0-20,0l-4.4,4.4-4.4-4.4a14.18,14.18,0,0,0-20,0,14.18,14.18,0,0,0,0,20l4.4,4.4,20,20,20-20,4.4-4.4A14.18,14.18,0,0,0-540.46-2715.26Z" transform="translate(852.13 3164.45)"/><text class="cls-11" transform="translate(274.98 476.56)">AI</text><path class="cls-4" d="M-616.08-3038.18a63.6,63.6,0,0,1-9.78,34l10.45,17.59-22.85-3.18A63.65,63.65,0,0,1-680-2974.28a63.9,63.9,0,0,1-63.9-63.9,63.9,63.9,0,0,1,63.9-63.9A63.9,63.9,0,0,1-616.08-3038.18Z" transform="translate(852.13 3164.45)"/><text class="cls-12" transform="translate(123.8 144.02)">Yes</text></svg>
