<!-- 默认失败图标 -->
<svg id="图层_1" data-name="图层 1" xmlns="http://www.w3.org/2000/svg" xmlns:xlink="http://www.w3.org/1999/xlink" viewBox="0 0 575.97 591.45"><defs><style>.cls-1{fill:none;}.cls-2{fill:#ddd;}.cls-3,.cls-8,.cls-9{fill:#bbbaba;}.cls-4{fill:#fff;}.cls-5{fill:#a0a0a0;}.cls-6{fill:#cecece;}.cls-7{clip-path:url(#clip-path);}.cls-8{font-size:25.71px;}.cls-8,.cls-9{font-family:CTHeiTiSF, CTHeiTiSF;}.cls-9{font-size:49.21px;}</style><clipPath id="clip-path" transform="translate(852.13 3164.45)"><circle class="cls-1" cx="-564.14" cy="-2877.96" r="287.99"/></clipPath></defs><title>矢量智能对象</title><circle class="cls-2" cx="287.99" cy="287.99" r="287.99"/><path class="cls-3" d="M-577.23-2990.17a40.53,40.53,0,0,1-23.9,10.94c-14.79,1.35-126,29.39-114.28,148.82,9.86,57.1,2.43,67.83,152.3,66.17,135.87-1.51,167.35,3.2,153.8-110.68-23.2-97-127.29-104.13-127.29-104.13s7.53-11.15,4.49-18.91c-.23-.57-10.51,8.37-25.88,17.1-5.26,3,9.64-36.45-.6-26.21C-563.81-3001.86-577.23-2990.17-577.23-2990.17Z" transform="translate(852.13 3164.45)"/><path class="cls-3" d="M-696.27-2916.37c-2.53-10.86-13.74-17.52-24.6-20a65.6,65.6,0,0,0-53.83,11.57A65.6,65.6,0,0,0-800.09-2876a65.6,65.6,0,0,0,21.5,50.69c5.21,4.66,11.63,8.61,18.62,8.59s14.28-5.29,14.42-12.28a8.91,8.91,0,0,0,7.64,10.5,8.91,8.91,0,0,0,9.15-9.21,8.88,8.88,0,0,0,8.41,4.92,8.88,8.88,0,0,0,7.66-6" transform="translate(852.13 3164.45)"/><path class="cls-3" d="M-435.12-2919.13c.56-8.81,5.62-17,12.57-22.43s15.63-8.35,24.39-9.5c17.25-2.26,35.41,2.28,49.18,12.91s22.85,27.31,23.66,44.69-6.85,35.08-20.47,45.9c-3.62,2.87-7.78,5.33-12.37,5.83s-9.66-1.35-11.94-5.37c3.06,3.43,1.91,9.64-2.17,11.76s-9.82-.54-10.85-5a9.39,9.39,0,0,1-4.23,10.37c-3.48,2-17.66-1.66-20.46-4.54" transform="translate(852.13 3164.45)"/><rect class="cls-4" x="162.93" y="267.32" width="252.16" height="78.96" rx="24.92" ry="24.92"/><path class="cls-5" d="M-540.35-2829.58c-2.45-18-16.46-26.28-22.47-26.21h-.59c-6-.07-20,8.19-22.47,26.21-2.33,17.13,10.06,26.21,22.47,26.21h.59C-550.41-2803.37-538-2812.45-540.35-2829.58Z" transform="translate(852.13 3164.45)"/><path class="cls-6" d="M-418-2917.18c9.6-12.1,24.92-19.21,40.45-17.4,15.13,1.77,28.23,11.83,34.75,25.41,1.51,3.14,6.19.4,4.68-2.74a50.22,50.22,0,0,0-38-27.92c-17.3-2.32-34.94,5.21-45.72,18.8-2.15,2.71,1.67,6.57,3.83,3.83Z" transform="translate(852.13 3164.45)"/><path class="cls-6" d="M-421.48-2916.64c11,18.75,34.57,11.81,50,3.88,3.11-1.59.37-6.27-2.74-4.68-12.66,6.48-33.34,13.93-42.63-1.94-1.76-3-6.45-.28-4.68,2.74Z" transform="translate(852.13 3164.45)"/><path class="cls-6" d="M-422.72-2919.82c-.32,26.8,23.07,48,49.77,44.46,1.87-.25,3.59-2.16,2.34-4.08l-.56-.86c-1.9-2.91-6.6-.2-4.68,2.74l.56.86,2.34-4.08c-23.78,3.14-44.64-14.91-44.35-39,0-3.49-5.38-3.49-5.42,0Z" transform="translate(852.13 3164.45)"/><path class="cls-6" d="M-700.77-2906.56c-10.78-13.6-28.43-21.12-45.72-18.8a50.22,50.22,0,0,0-38,27.92c-1.5,3.13,3.17,5.89,4.68,2.74,6.52-13.59,19.62-23.64,34.75-25.41,15.53-1.82,30.85,5.3,40.45,17.4,2.17,2.73,6-1.13,3.83-3.83Z" transform="translate(852.13 3164.45)"/><path class="cls-6" d="M-705.8-2904.92c-9.29,15.86-30,8.42-42.63,1.94-3.1-1.59-5.85,3.09-2.74,4.68,15.48,7.92,39.07,14.87,50-3.88,1.77-3-2.92-5.75-4.68-2.74Z" transform="translate(852.13 3164.45)"/><path class="cls-6" d="M-705.29-2905.36c.29,24.13-20.57,42.18-44.35,39l2.34,4.08.56-.86c1.91-2.93-2.78-5.65-4.68-2.74l-.56.86c-1.25,1.92.47,3.83,2.34,4.08,26.7,3.53,50.09-17.67,49.77-44.46,0-3.49-5.46-3.5-5.42,0Z" transform="translate(852.13 3164.45)"/><g class="cls-7"><path class="cls-3" d="M-632-2766.83s-79.81,170.61-12.22,185.4,140.47,5.73,153.14,5.28c29.57-1.06,50.69-64.42-8.45-193.27C-588.24-2815.89-632-2766.83-632-2766.83Z" transform="translate(852.13 3164.45)"/></g><path class="cls-4" d="M-540.46-2715.26a14.18,14.18,0,0,0-20,0l-4.4,4.4-4.4-4.4a14.18,14.18,0,0,0-20,0,14.18,14.18,0,0,0,0,20l4.4,4.4,20,20,20-20,4.4-4.4A14.18,14.18,0,0,0-540.46-2715.26Z" transform="translate(852.13 3164.45)"/><text class="cls-8" transform="translate(274.98 476.56)">AI</text><path class="cls-4" d="M-616.08-3038.18a63.6,63.6,0,0,1-9.78,34l10.45,17.59-22.85-3.18A63.65,63.65,0,0,1-680-2974.28a63.9,63.9,0,0,1-63.9-63.9,63.9,63.9,0,0,1,63.9-63.9A63.9,63.9,0,0,1-616.08-3038.18Z" transform="translate(852.13 3164.45)"/><text class="cls-9" transform="translate(116.3 135.37)">sorry</text><path class="cls-3" d="M-532.86-2868.75a122.81,122.81,0,0,0,74.95,11.94c3.3-.51,2.56-6.32-.8-5.89l-3,.37c-3.78.48-3.83,6.48,0,6l3-.37-.8-5.89a115.88,115.88,0,0,1-70.32-11.33c-3.43-1.75-6.47,3.42-3,5.18Z" transform="translate(852.13 3164.45)"/><path class="cls-3" d="M-505.51-2859.24l-12.1,15.25c-2.38,3,1.84,7.27,4.24,4.24l12.1-15.25c2.38-3-1.84-7.27-4.24-4.24Z" transform="translate(852.13 3164.45)"/><path class="cls-3" d="M-481.63-2853.74l5.61,17.91c1.15,3.67,6.95,2.1,5.79-1.6l-5.61-17.91c-1.15-3.67-6.95-2.1-5.79,1.6Z" transform="translate(852.13 3164.45)"/><path class="cls-3" d="M-594.22-2873.93a115.89,115.89,0,0,1-70.32,11.33l-.8,5.89,3,.37c3.82.48,3.79-5.52,0-6l-3-.37c-3.32-.42-4.14,5.37-.8,5.89a122.8,122.8,0,0,0,74.95-11.94c3.44-1.76.41-6.93-3-5.18Z" transform="translate(852.13 3164.45)"/><path class="cls-3" d="M-622.78-2855l12.1,15.25c2.4,3,6.62-1.25,4.24-4.24l-12.1-15.25c-2.4-3-6.62,1.25-4.24,4.24Z" transform="translate(852.13 3164.45)"/><path class="cls-3" d="M-648.21-2855.34l-5.61,17.91c-1.16,3.69,4.63,5.27,5.79,1.6l5.61-17.91c1.16-3.69-4.63-5.27-5.79-1.6Z" transform="translate(852.13 3164.45)"/></svg>
