<?xml version="1.0" encoding="utf-8" standalone="no"?>
<!DOCTYPE svg PUBLIC "-//W3C//DTD SVG 1.1//EN" "http://www.w3.org/Graphics/SVG/1.1/DTD/svg11.dtd">
<!-- 加号 -->
<svg viewBox="0 0 1024 1024" version="1.1" xmlns="http://www.w3.org/2000/svg" xmlns:xlink="http://www.w3.org/1999/xlink">
  <path d="M998.35038 522.22119321L25.648065 522.22119321c-8.5907648 0-15.55452654-6.96531673-15.55452652-15.55452654 0-8.5907648 6.96376174-15.55452654 15.55452652-15.55452654l972.702315 0c8.5907648 0 15.55452654 6.96376174 15.55452654 15.55452654C1013.90490654 515.25743147 1006.9411448 522.22119321 998.35038 522.22119321z"></path>
  <path d="M527.55374827 20.3155084l0 972.702315c0 8.5907648-6.96531673 15.55452654-15.55452653 15.55452654-8.5907648 0-15.55452654-6.96376174-15.55452655-15.55452654l0-972.702315c0-8.5907648 6.96376174-15.55452654 15.55452655-15.55452654C520.58843155 4.76098186 527.55374827 11.7247436 527.55374827 20.3155084z"></path>
</svg>
