<?xml version="1.0" encoding="utf-8" standalone="no"?>
<!DOCTYPE svg PUBLIC "-//W3C//DTD SVG 1.1//EN" "http://www.w3.org/Graphics/SVG/1.1/DTD/svg11.dtd">
<!-- PPT-不可用 -->
<svg viewBox="0 0 1058 1024" version="1.1" xmlns="http://www.w3.org/2000/svg" xmlns:xlink="http://www.w3.org/1999/xlink">
  <path d="M88.303124 145.833947v661.422022h881.814942V145.833947h-881.814942z m0-44.151562h925.966504V851.407531h-970.118066V101.682385h44.151562z m0 0"
    fill="#999999"></path>
  <path d="M573.362157 145.833947c0 24.325929-19.704003 44.151562-44.151562 44.151562-24.325929 0-44.151562-19.704003-44.151562-44.151562h-463.044067c-12.162965 0-21.893337-9.852001-22.014966-22.014966 0-12.162965 9.852001-21.893337 22.014966-22.014966h463.044067V57.652453c0-24.325929 19.704003-44.151562 44.151562-44.151562 24.325929 0 44.151562 19.704003 44.151562 44.151562v44.151562h462.922437c12.162965 0 22.014966 9.852001 22.014967 22.014966s-9.852001 22.014966-22.014967 22.014966H573.362157zM637.9475 851.407531H420.47369l-152.037059 152.158688c-8.635705 8.514075-22.501485 8.514075-31.137189-0.121629-8.635705-8.635705-8.635705-22.501485-0.12163-31.13719L358.199311 851.407531h-336.062715c-12.162965 0-21.893337-9.852001-22.014966-22.014967 0-12.162965 9.852001-21.893337 22.014966-22.014966h1014.147998c7.905927 0 15.082076 4.135408 18.974225 10.946669 3.892149 6.81126 3.892149 15.203706 0 22.014966-3.892149 6.81126-11.189928 10.946668-18.974225 10.946668H700.343509l120.899869 120.899869c8.514075 8.635705 8.514075 22.501485-0.12163 31.13719-8.635705 8.635705-22.501485 8.635705-31.137189 0.12163L637.9475 851.407531z m0 0"
    fill="#999999"></path>
  <path d="M132.454686 278.167003H926.209764v441.029101H132.454686z" fill="#D8D8D8"></path>
  <path d="M329.737974 539.062597H274.518114v81.735122H240.583442V403.202281h92.316902c48.773489 2.067704 74.680603 24.08267 77.478086 65.801639-0.729778 45.976007-27.60993 69.328899-80.640456 70.058677z m-4.257038-109.345053H274.518114v82.829789h50.962822c32.596745-0.729778 49.138377-14.838817 49.868155-42.448746-1.459556-26.150374-18.001188-39.651265-49.868155-40.381043zM535.656966 539.062597h-55.219859v81.735122h-33.934672V403.202281h92.316902c48.773489 2.067704 74.680603 24.08267 77.478085 65.801639-0.729778 45.976007-27.60993 69.328899-80.640456 70.058677z m-4.257037-109.345053h-50.962822v82.829789h50.962822c32.596745-0.729778 49.138377-14.838817 49.868155-42.448746-1.459556-26.150374-18.001188-39.651265-49.868155-40.381043zM817.959378 430.81221h-74.315715v189.985509h-32.961634V430.81221h-75.410382v-27.609929H817.959378v27.609929z"
    fill="#999999"></path>
</svg>
