
<!-- PPT-激活 -->
<?xml version="1.0" standalone="no"?><!DOCTYPE svg PUBLIC "-//W3C//DTD SVG 1.1//EN" "http://www.w3.org/Graphics/SVG/1.1/DTD/svg11.dtd"><svg t="1516067113676" class="icon" style="" viewBox="0 0 1058 1024" version="1.1" xmlns="http://www.w3.org/2000/svg" p-id="2933" xmlns:xlink="http://www.w3.org/1999/xlink" width="66.125" height="64"><defs><style type="text/css"></style></defs><path d="M95.49247217 149.6941281v656.58666377h875.36839123V149.6941281h-875.36839123z m0-43.82879031h919.19718051V850.10958115h-963.02597082V105.86533779h43.82879031z m0 0" fill="#33A3F4" p-id="2934"></path><path d="M577.12619773 149.6941281c0 24.14809339-19.55995626 43.82879031-43.82879031 43.82878928-24.14809339 0-43.82879031-19.55995626-43.82878928-43.82878928h-459.65896111c-12.07404721 0-21.73328415-9.77997761-21.85402482-21.85402482 0-12.07404721 9.77997761-21.73328415 21.85402482-21.85402481h459.65896111V62.15728918c0-24.14809339 19.55995626-43.82879031 43.82878928-43.82879031 24.14809339 0 43.82879031 19.55995626 43.82879031 43.82879031v43.82878929h459.53822043c12.07404721 0 21.85402482 9.77997761 21.85402483 21.85402481s-9.77997761 21.85402482-21.85402483 21.85402482H577.12619773zM641.23938624 850.10958115H425.35542964L274.42984519 1001.03516559c-8.57257299 8.45183232-22.33698646 8.45183232-30.90955946-0.12073963-8.57257299-8.57257299-8.57257299-22.33698646-0.12074067-30.90956049l120.016025-120.01602499h-333.60591303c-12.07404721 0-21.73328415-9.77997761-21.85402482-21.85402379 0-12.07404721 9.77997761-21.73328415 21.85402482-21.85402482h1006.73402047c7.84813001 0 14.97181809 4.1051755 18.83551328 10.86664156 3.86369519 6.76146607 3.86369519 15.09255875 0 21.85402482-3.86369519 6.76146607-11.1081229 10.86664259-18.83551328 10.8666426H703.05850514l120.01602499 120.01602499c8.45183232 8.57257299 8.45183232 22.33698646-0.12073963 30.90955945-8.57257299 8.57257299-22.33698646 8.57257299-30.90956049 0.12074067L641.23938624 850.10958115z m0 0" fill="#33A3F4" p-id="2935"></path><path d="M139.32126144 280.93901667h787.95229299v437.80493525H139.32126144z" fill="#B3DBFF" p-id="2936"></path><path d="M335.16230015 540.04806023H280.46686828v81.13759382H246.65953691V405.18095782h91.64201545c48.41692744 2.05258826 74.13464746 23.90661308 76.91167766 65.32059312-0.60370231 45.63989723-27.28734561 68.82206631-80.05092987 69.54650929z m-4.22591617-108.54568113H280.46686828v82.22425881h50.59025637c32.35844541-0.72444298 48.77914945-14.73033675 49.5035914-42.13842301-1.44888595-26.07994098-17.99032963-39.36139281-49.62433207-40.0858358zM539.57591184 540.04806023h-54.8161715v81.13759382h-33.6865907V405.18095782h91.64201442c48.41692744 2.05258826 74.13464746 23.90661308 76.91167869 65.32059312-0.60370231 45.63989723-27.28734561 68.82206631-80.05093091 69.54650929z m-4.22591616-108.54568113h-50.59025534v82.22425881h50.59025534c32.35844541-0.72444298 48.77914945-14.73033675 49.50359242-42.13842301-1.32814529-26.07994098-17.86958896-39.36139281-49.50359242-40.0858358zM819.81453829 432.58904408h-73.77242648v188.59660997h-32.72066639V432.58904408h-74.85909042v-27.40808626h181.23144262v27.40808626z" fill="#33A3F4" p-id="2937"></path></svg>
