<?xml version="1.0" encoding="utf-8" standalone="no"?>
<!DOCTYPE svg PUBLIC "-//W3C//DTD SVG 1.1//EN" "http://www.w3.org/Graphics/SVG/1.1/DTD/svg11.dtd">
<!-- 双引号（右） -->
<svg viewBox="0 0 1403 1024" version="1.1" xmlns="http://www.w3.org/2000/svg" xmlns:xlink="http://www.w3.org/1999/xlink">
  <path d="M112.89535044 94.72975286c-22.68937229 24.70496837-40.73005763 53.87350471-54.04438377 87.41110773-13.32338789 33.61915891-19.98767091 67.69917345-19.98767093 102.23227637 0 71.11416542 20.02003437 131.60405523 60.05233588 181.50332746 40.03618512 49.88632684 92.15170686 79.71248862 156.43977197 89.59369923l22.2738255 1.44599925 19.28603118 3.01756872c29.62421381 3.93927997 44.45832786 15.32992222 44.45832785 34.07872 0 19.75983218-19.80643555 50.88571038-59.34810705 93.31938038-41.54432222 45.46806771-107.31981179 91.36333307-197.2811599 137.76864647-37.60245317 19.73135234-56.39914889 44.46868417-56.39914888 74.08254168 0 18.77857217 6.41832075 34.34151127 19.24201688 46.6991736 12.82110704 12.32788797 29.13876195 18.50024643 48.9050668 18.50024645 49.36980606 0 117.51171161-28.67661179 204.40500403-85.93274501 102.67500848-67.19171445 184.61928107-148.86801762 245.86259216-245.18813772 61.24201655-96.3265928 91.86302483-191.33664016 91.86173028-285.19843208 0-44.43373164-8.42097147-88.60726107-25.19559838-132.60214424-16.75779792-43.9081491-39.48988997-81.17272779-68.10436394-111.84681212-60.24133847-66.15090569-132.80020859-99.22894759-217.66884312-99.23024213-86.87905248 0-158.49290967 30.12002196-214.75224843 90.34582596v0zM820.36957764 94.72975286c-22.6932559 24.70496837-40.64591265 54.1065216-53.96282787 88.16582352-13.32856605 34.13309061-19.94236208 67.91147773-19.94236206 101.47885512 0 71.11416542 19.7028725 131.84742843 59.07754855 182.24121426 39.36949792 50.38084045 91.07982917 79.97527988 155.11157571 88.85710698l23.6305016 1.44599923 17.74423609 3.01886325c29.51158898 3.93927997 44.31851773 15.32992222 44.31851773 34.07872 0 19.75983218-19.23813325 50.88571038-57.65744008 93.32067493-40.40901215 43.46282793-105.92688862 89.40987481-196.55621847 137.76735195-37.48982835 19.73135234-56.18296098 44.46868417-56.18296098 74.08254165 0 18.77857217 6.36006653 34.33892219 19.19152986 46.70046816 12.82499067 12.3291825 29.10769303 18.50024643 48.83257269 18.50024643 49.24035223 0 117.25668756-28.67531725 204.02311523-85.93274501 102.50024581-67.18912537 184.04968423-148.86801762 244.67550055-245.18813771 60.57662388-96.32400371 90.91801189-191.33664016 90.91930644-285.19843208 0-44.43373164-8.37566261-88.60726107-25.15287862-132.60084971-16.77462693-43.9081491-39.40833406-81.17272779-67.98397187-111.84681211-60.08599387-66.15090569-132.02348563-99.23024213-215.78011179-99.23024214-87.71014605 0-159.14794604 30.1213165-214.29916003 90.34582599v0z"></path>
</svg>
