<!-- 双引号（左） -->
<?xml version="1.0" standalone="no"?><!DOCTYPE svg PUBLIC "-//W3C//DTD SVG 1.1//EN" "http://www.w3.org/Graphics/SVG/1.1/DTD/svg11.dtd"><svg t="1516081977737" class="icon" style="" viewBox="0 0 1403 1024" version="1.1" xmlns="http://www.w3.org/2000/svg" p-id="1444" xmlns:xlink="http://www.w3.org/1999/xlink" width="87.6875" height="64"><defs><style type="text/css"></style></defs><path d="M1275.25719609 901.65343067c22.68937229-24.70496837 40.73135218-53.87350471 54.04438377-87.4111077 13.32338789-33.61915891 19.98767091-67.69917345 19.98767091-102.23227639 0-71.11416542-20.02003437-131.60405523-60.05233588-181.50203291-40.03747966-49.88632684-92.15170686-79.71248862-156.43977197-89.59369924l-22.27382549-1.44599925-19.28603118-3.01886325c-29.62421381-3.93927997-44.4596224-15.32992222-44.4596224-34.07872 0-19.75853763 19.8077301-50.88571038 59.34810706-93.31938038 41.54432222-45.46806771 107.31981179-91.36333307 197.2811599-137.76864648 37.60245317-19.73135234 56.39914889-44.46738963 56.39914888-74.08254168 0-18.77857217-6.41832075-34.34151127-19.24201687-46.70046814-12.82110704-12.32788797-29.13876195-18.50024643-48.90506681-18.50024645-49.36980606 0-117.51171161 28.67531725-204.40500402 85.93274501-102.67500848 67.19171445-184.61928107 148.86801762-245.86129762 245.18813773-61.24201655 96.3265928-91.86173029 191.33664016-91.86173029 285.19843208 0 44.43373164 8.42097147 88.60726107 25.19559838 132.60214423 16.75779792 43.9081491 39.48988997 81.17272779 68.10436393 111.84681213 60.24133847 66.15090569 132.80020859 99.23024213 217.66884313 99.23024213 86.87775795 0 158.49290967-30.1213165 214.75224843-90.34582597v0zM567.78296889 901.65343067c22.6932559-24.70496837 40.64591265-54.1065216 53.96282786-88.16582352 13.32856605-34.13309061 19.94236208-67.91147773 19.94236207-101.47885512 0-71.11416542-19.7028725-131.84742843-59.07754856-182.24121425-39.36949792-50.38084045-91.07982917-79.97398533-155.1115757-88.85581243l-23.63050161-1.44599925-17.74294156-3.01886325c-29.51158898-3.93927997-44.31851773-15.32992222-44.31851773-34.07872 0-19.75853763 19.23813325-50.88571038 57.65744009-93.32067492 40.40901215-43.46282793 105.92688862-89.40987481 196.55621847-137.76735193 37.48982835-19.73135234 56.18296098-44.46738963 56.18296098-74.08254169 0-18.77857217-6.36006653-34.34021673-19.19152988-46.70046814-12.82499067-12.3291825-29.10769303-18.50024643-48.83257268-18.50024644-49.2390577 0-117.25668756 28.67531725-204.02311522 85.93274502-102.50024581 67.18912537-184.04968423 148.86801762-244.67550057 245.1881377-60.57662388 96.32400371-90.91801189 191.33664016-90.91801188 285.19843209 0 44.43373164 8.37566261 88.60726107 25.15287862 132.60214423 16.77462693 43.9081491 39.40833406 81.17272779 67.98397187 111.84681213 60.08599387 66.15090569 132.02348563 99.23024213 215.78011179 99.23024213 87.71014605 0 159.14794604-30.1213165 214.29916004-90.34582597v0z" p-id="1445"></path></svg>
