<!-- 教师 -->
<?xml version="1.0" standalone="no"?><!DOCTYPE svg PUBLIC "-//W3C//DTD SVG 1.1//EN" "http://www.w3.org/Graphics/SVG/1.1/DTD/svg11.dtd"><svg t="1516067155784" class="icon" style="" viewBox="0 0 1066 1024" version="1.1" xmlns="http://www.w3.org/2000/svg" p-id="3681" xmlns:xlink="http://www.w3.org/1999/xlink" width="66.625" height="64"><defs><style type="text/css"></style></defs><path d="M324.006107 677.390331h453.211196v202.845801h-453.211196z m321.644784-471.450382a105.038168 105.038168 0 1 1-105.038168-105.038168 105.021883 105.021883 0 0 1 105.038168 105.038168z m0 0" fill="#B3DBFF" p-id="3682"></path><path d="M540.629008 411.733333a205.809669 205.809669 0 1 1 205.793384-205.793384 206.021374 206.021374 0 0 1-205.793384 205.793384z m0-355.468702a149.675318 149.675318 0 1 0 149.659033 149.675318 149.821883 149.821883 0 0 0-149.659033-149.675318z m0 0" fill="#33A3F4" p-id="3683"></path><path d="M806.00916 677.113486a28.075318 28.075318 0 0 1-28.075318-28.059033c0-130.866158-106.454962-237.32112-237.304834-237.32112S303.307888 518.188295 303.307888 649.054453a28.075318 28.075318 0 0 1-56.134351 0c0-161.807634 131.647837-293.455471 293.471756-293.455471s293.439186 131.647837 293.439185 293.455471a28.059033 28.059033 0 0 1-28.059033 28.059033z m0 0" fill="#33A3F4" p-id="3684"></path><path d="M1038.461069 705.465649H28.059033A28.075318 28.075318 0 0 1 0 677.390331a28.075318 28.075318 0 0 1 28.059033-28.059033h1010.402036a28.075318 28.075318 0 0 1 0 56.134351z m0 0" fill="#33A3F4" p-id="3685"></path><path d="M904.728753 1022.436641H196.462087a28.075318 28.075318 0 0 1-28.059034-28.059033V677.390331a28.075318 28.075318 0 0 1 28.075319-28.059033h708.250381a28.075318 28.075318 0 0 1 28.075318 28.059033v316.987277a28.075318 28.075318 0 0 1-28.075318 28.059033z m-680.191348-56.134351h652.132315V705.465649H224.537405z m0 0" fill="#33A3F4" p-id="3686"></path><path d="M805.992875 652.37659a28.059033 28.059033 0 0 1-24.72061-41.331297l185.062595-344.834606a28.075318 28.075318 0 1 1 49.473791 26.528244L830.729771 637.573537a28.059033 28.059033 0 0 1-24.753181 14.803053z m0 0" fill="#33A3F4" p-id="3687"></path></svg>
