<?xml version="1.0" encoding="utf-8" standalone="no"?>
<!DOCTYPE svg PUBLIC "-//W3C//DTD SVG 1.1//EN" "http://www.w3.org/Graphics/SVG/1.1/DTD/svg11.dtd">
<!-- 课程（删除） -->
<svg viewBox="0 0 1024 1024" version="1.1" xmlns="http://www.w3.org/2000/svg" xmlns:xlink="http://www.w3.org/1999/xlink">
  <path d="M40.35949184 182.7598759h97.78020368l45.51960561 801.8998243c0.91468963 16.67459228 14.75362666 29.7256516 31.45992192 29.72565159h596.81443327c16.70746945 0 30.54640647-13.0815881 31.45992191-29.75618039l44.79278548-801.87046969h97.84595802c17.43194121 0 31.52450205-14.12191546 31.52450205-31.52097949 0-17.40141242-14.09256085-31.52332787-31.52450205-31.52332788h-246.85582591l-15.39238295-82.49349733c0-17.40141242-14.09021248-31.52450205-31.52567625-31.52450206h-358.16028521c-17.43194121 0-31.52215368 14.12308965-31.52215369 31.52450206l-15.39238295 82.49349733h-246.79476832c-17.4331154 0-31.52332787 14.12191546-31.52332788 31.52332788 0 17.40023823 14.05968369 31.52215368 31.49279908 31.52215368zM365.62147928 68.74539907h295.11715202l15.39120877 50.97251782h-325.89956955l15.39238295-50.97251782zM825.04694741 182.7598759l-42.93170324 768.6128715h-537.20813776l-43.62799458-768.61169731h623.7666614zM357.09572655 892.2678286c0.6317112 0 1.19766805 0 1.82820507-0.0305288 17.40023823-0.9769214 30.67087001-15.88788875 29.66341983-33.25877237l-33.16131508-584.26709906c-0.97809558-17.40023823-16.2976791-30.48300051-33.25759819-29.69394863-17.39906405 0.97809558-30.6720442 15.88671457-29.66341983 33.25642401l33.16248927 584.26709907c0.94521842 16.77087541 14.8475614 29.72682578 31.42821893 29.72682578zM666.33009729 892.23847399c0.63288537 0.03052879 1.20001643 0.03052879 1.82820507 0.03052879 16.58065753 0 30.48300051-12.95477619 31.42939312-29.72682578l33.16131508-584.26709907c0.97809558-17.36853525-12.2925362-32.27715423-29.66224565-33.256424-17.11843398-0.72564595-32.24897382 12.29371038-33.25759818 29.69394861l-33.16131508 584.26709908c-0.97809558 17.37088363 12.29371038 32.28067679 29.66107145 33.25877237zM513.19649387 892.2678286c17.4331154 0 31.52332787-14.12074127 31.52332787-31.5221537v-584.26827324c0-17.39906405-14.09021248-31.52332787-31.52332787-31.52332788-17.43194121 0-31.52215368 14.12426383-31.52215368 31.52332788v584.26827324c0 17.40141242 14.09021248 31.52215368 31.52215368 31.5221537z"
  ></path>
</svg>
