<?xml version="1.0" encoding="utf-8" standalone="no"?>
<!DOCTYPE svg PUBLIC "-//W3C//DTD SVG 1.1//EN" "http://www.w3.org/Graphics/SVG/1.1/DTD/svg11.dtd">
<!-- 上传作业（不可用） -->
<svg viewBox="0 0 1024 1024" version="1.1" xmlns="http://www.w3.org/2000/svg" xmlns:xlink="http://www.w3.org/1999/xlink">
  <path d="M685.61868 687.84389m-206.093311 0a206.09331 206.09331 0 1 0 412.186621 0 206.09331 206.09331 0 1 0-412.186621 0Z"
    fill="#D8D8D8"></path>
  <path d="M690.098969 356.242741c-184.393775 0-333.871163 149.477387-333.871163 333.856228s149.477387 333.886097 333.871163 333.886097S1023.970131 874.507679 1023.970131 690.113903 874.492744 356.242741 690.098969 356.242741z m0 623.223183c-159.796987 0-289.352021-129.555034-289.352021-289.352021s129.555034-289.352021 289.352021-289.35202S979.45099 530.316916 979.45099 690.113903 849.91089 979.465924 690.098969 979.465924z m-467.443523-422.909446a66.771246 66.771246 0 1 0 66.771246 66.771245 66.771246 66.771246 0 0 0-66.771246-66.771245z m0 89.038283a22.267038 22.267038 0 1 1 22.267039-22.252103 22.267038 22.267038 0 0 1-22.252104 22.267038z m-133.557425 222.521038a44.519142 44.519142 0 0 1-44.519142-44.519142V155.929004A44.519142 44.519142 0 0 1 89.12789 111.409862h44.519141a66.771246 66.771246 0 0 0 133.542492 0h89.038283a66.771246 66.771246 0 0 0 133.557426 0h89.023349a66.771246 66.771246 0 0 0 133.557426 0h44.519142a44.519142 44.519142 0 0 1 44.504207 44.519142v172.446337a376.194963 376.194963 0 0 1 44.519142 16.816019V155.929004a89.023349 89.023349 0 0 0-89.023349-89.038284H712.366007a66.771246 66.771246 0 0 0-133.557426 0H489.844969a66.771246 66.771246 0 0 0-133.557425 0h-89.083087a66.771246 66.771246 0 1 0-133.542491 0H89.142824A89.038284 89.038284 0 0 0 0.10454 155.929004v667.742325a89.038284 89.038284 0 0 0 89.038284 89.023349H384.11014a378.778596 378.778596 0 0 1-27.942071-44.504207z m534.229702-801.225079a22.252104 22.252104 0 1 1 44.504208 0V111.409862a22.252104 22.252104 0 1 1-44.504208 0z m-222.521038 0a22.252104 22.252104 0 1 1 44.504208 0V111.409862a22.252104 22.252104 0 1 1-44.504208 0z m-222.521037 0a22.252104 22.252104 0 0 1 44.519141 0V111.409862a22.252104 22.252104 0 1 1-44.519141 0z m44.519141 244.832879a66.771246 66.771246 0 1 0 66.771246 66.771245 66.771246 66.771246 0 0 0-66.771246-66.771245z m0 89.023349a22.252104 22.252104 0 1 1 22.252104-22.252104 22.267038 22.267038 0 0 1-22.252104 22.252104z m200.313737-89.023349a66.771246 66.771246 0 0 0-19.145769 130.779646 380.49604 380.49604 0 0 1 85.125497-73.043651 66.771246 66.771246 0 0 0-66.144005-57.735995z m0 89.023349a22.252104 22.252104 0 1 1 22.252104-22.252104 22.252104 22.252104 0 0 1-22.252104 22.252104zM713.112722 811.051847h-47.789753V635.827731h47.789753zM688.217247 493.279858l-82.063966 142.129712h164.127933z"
    fill="#999999"></path>
</svg>
