<!-- 上传作业 -->
<?xml version="1.0" standalone="no"?><!DOCTYPE svg PUBLIC "-//W3C//DTD SVG 1.1//EN" "http://www.w3.org/Graphics/SVG/1.1/DTD/svg11.dtd"><svg t="1516067150677" class="icon" style="" viewBox="0 0 1024 1024" version="1.1" xmlns="http://www.w3.org/2000/svg" p-id="3557" xmlns:xlink="http://www.w3.org/1999/xlink" width="64" height="64"><defs><style type="text/css"></style></defs><path d="M685.599131 687.817149m-206.118862 0a206.118862 206.118862 0 1 0 412.237724 0 206.118862 206.118862 0 1 0-412.237724 0Z" fill="#B3DBFF" p-id="3558"></path><path d="M690.079975 356.159951c-184.416637 0-333.912556 149.49592-333.912556 333.89762s149.510856 333.942429 333.912556 333.942429 333.912556-149.555664 333.912557-333.912556-149.49592-333.927493-333.912557-333.927493z m0 623.300451c-159.816799 0-289.387895-129.571096-289.387895-289.387895s129.571096-289.387895 289.387895-289.387895 289.387895 129.571096 289.387896 289.387895-129.55616 289.417767-289.387896 289.417768z m-467.501476-422.961879a66.779524 66.779524 0 1 0 66.779524 66.779524 66.779524 66.779524 0 0 0-66.779524-66.779524z m0 89.049323a22.269799 22.269799 0 1 1 22.254862-22.269799 22.269799 22.269799 0 0 1-22.254862 22.269799z m-133.573985 222.548626a44.524661 44.524661 0 0 1-44.479853-44.435044V155.836315a44.524661 44.524661 0 0 1 44.524662-44.524661h44.524661a66.779524 66.779524 0 0 0 133.559048 0h89.049323a66.786992 66.786992 0 0 0 133.573984 0h89.019451a66.786992 66.786992 0 0 0 133.573984 0h44.524662a44.524661 44.524661 0 0 1 44.509725 44.524661V328.304032a376.241604 376.241604 0 0 1 44.524661 16.818105V155.836315a89.034387 89.034387 0 0 0-89.034386-89.049323h-44.524662a66.786992 66.786992 0 0 0-133.573984 0h-89.034387a66.786992 66.786992 0 0 0-133.573984 0h-89.034387a66.779524 66.779524 0 0 0-133.559048 0H89.049323A89.049323 89.049323 0 0 0 0 155.836315v667.825113a89.049323 89.049323 0 0 0 89.049323 89.034387H384.008402a378.825558 378.825558 0 0 1-27.945536-44.509726zM623.300451 66.786992a22.254863 22.254863 0 1 1 44.509726 0v44.524662a22.254863 22.254863 0 1 1-44.509726 0z m-222.548626 0a22.254863 22.254863 0 1 1 44.509725 0v44.524662a22.254863 22.254863 0 1 1-44.509725 0z m-222.548626 0a22.262331 22.262331 0 0 1 44.524661 0v44.524662a22.262331 22.262331 0 1 1-44.524661 0z m44.524661 244.863234a66.779524 66.779524 0 1 0 66.779524 66.779524 66.779524 66.779524 0 0 0-66.779524-66.779524z m0 89.034386a22.254863 22.254863 0 1 1 22.254863-22.254862 22.269799 22.269799 0 0 1-22.254863 22.254862z m200.338572-89.034386a66.779524 66.779524 0 0 0-19.04359 130.79586 380.543215 380.543215 0 0 1 85.136051-73.052707 66.779524 66.779524 0 0 0-66.152205-57.743153z m0 89.034386a22.254863 22.254863 0 1 1 22.254863-22.254862 22.254863 22.254863 0 0 1-22.254863 22.254862z m290.03015 410.370706h-47.795678V635.79454h47.795678z m-24.883625-317.811388l-82.074141 142.147334h164.133346z" fill="#33A3F4" p-id="3559"></path></svg>
