<?xml version="1.0" encoding="utf-8" standalone="no"?>
<!DOCTYPE svg PUBLIC "-//W3C//DTD SVG 1.1//EN" "http://www.w3.org/Graphics/SVG/1.1/DTD/svg11.dtd">
<!-- 用户 -->
<svg viewBox="0 0 1024 1024" version="1.1" xmlns="http://www.w3.org/2000/svg" xmlns:xlink="http://www.w3.org/1999/xlink">
  <path d="M514.62604475 459.77136356a222.25231744 222.25231744 0 0 1-141.77769244-49.92354183c-54.85993045-42.86335725-86.50161253-108.12701517-86.50161253-178.88671139C286.34673978 105.12623334 388.76246731 2.66745614 514.62604475 2.66745614a226.32770869 226.32770869 0 0 1 186.54959433 97.30713825 222.42451711 222.42451711 0 0 1 41.75840911 131.00086519c-0.07175011 126.13622569-102.48747764 228.795903-228.30800344 228.79590398z m0-403.50677358a174.86872003 174.86872003 0 0 0-174.73957102 174.69652036 172.60142484 172.60142484 0 0 0 66.31120618 136.95610261 169.54488141 169.54488141 0 0 0 108.42836484 38.24266655c96.34569033 0 174.69652036-78.59477883 174.69652036-175.19876916a169.68838162 169.68838162 0 0 0-32.04348033-100.00493311 173.08932441 173.08932441 0 0 0-142.65304003-74.61983812z m0 0"></path>
  <path d="M511.95695033 1010.60926678A615.32666311 615.32666311 0 0 1 101.83484108 854.33810639a26.76269236 26.76269236 0 0 1-8.88263086-20.6639557c5.73998709-225.07926131 193.72457967-408.19921341 419.01909033-408.19921341 229.21205245 0 413.27910225 179.28851062 419.01908934 408.19921341a26.63354236 26.63354236 0 0 1-8.89698009 20.60655581A612.90151847 612.90151847 0 0 1 511.95695033 1010.60926678z m-364.96275736-187.98459159c210.28444369 179.23111073 519.59802136 179.23111073 729.88246505 0-11.12122561-193.62412912-169.14308217-343.58130352-364.90535747-343.58130352-192.39003197 0-353.58323175 153.04241728-364.97710758 343.58130352z m0 0"></path>
</svg>
