<?xml version="1.0" encoding="utf-8" standalone="no"?>
<!DOCTYPE svg PUBLIC "-//W3C//DTD SVG 1.1//EN" "http://www.w3.org/Graphics/SVG/1.1/DTD/svg11.dtd">
<!-- 默认头像 -->
<svg viewBox="0 0 1024 1024" version="1.1" xmlns="http://www.w3.org/2000/svg" xmlns:xlink="http://www.w3.org/1999/xlink">
  <path d="M0 0h1024v1024H0z" fill="#F6F6F6"></path>
  <path d="M228.923077 187.076923L70.4 278.646154v182.646154l158.523077 91.56923V393.353846l162.953846-114.707692zM796.061538 188.061538l-158.030769 90.584616 155.569231 111.753846 158.523077-111.753846zM796.061538 397.784615v154.092308l157.538462-90.584615V283.076923z"
    fill="#AAAAAA"></path>
  <path d="M397.784615 282.092308L236.8 395.815385l221.046154 157.538461 165.415384-271.261538zM512.984615 471.630769l-48.246153 81.723077h96zM631.138462 280.615385l-2.461539 2.953846L516.923077 466.215385l51.2 87.138461 220.061538-158.030769zM235.323077 401.230769V674.461538l160.984615 160 59.569231-24.615384v-249.6zM462.276923 560.246154v246.153846l100.923077-40.861538v-205.292308zM406.646154 836.923077h221.046154l154.092307-155.569231zM569.6 559.261538l-0.984615 202.83077 220.553846-89.6 0.984615-270.769231z"
    fill="#AAAAAA"></path>
</svg>
